<svg width="60" height="60" viewBox="0 0 60 60" fill="none" xmlns="http://www.w3.org/2000/svg">
<path d="M55.08 20.7599C54.84 20.2799 54.24 20.1599 53.76 20.3999C51.12 22.1999 44.52 24.2399 44.52 24.2399C21 30.2399 30.96 55.7999 30.96 55.7999C42.36 56.7599 53.16 54.3599 57.6 42.2399C60.96 32.6399 56.64 23.5199 55.08 20.7599Z" fill="#7C8F5C"/>
<path d="M30.84 55.8C30.84 54.6 35.04 38.64 49.56 30.96C49.56 30.96 36.12 42.96 30.84 55.8Z" fill="#48523F"/>
<path d="M10.8 4.43996C11.28 3.95996 12 3.95996 12.48 4.43996C15.36 7.43996 23.04 12.12 23.04 12.12C50.88 26.64 30.84 55.92 30.84 55.92C16.08 53.88 3.24003 47.64 1.32003 30.96C-0.119969 17.76 7.92003 7.55996 10.8 4.43996Z" fill="#A8BE8B"/>
<path d="M30.9601 55.7999C31.3201 54.2399 30.7201 32.8799 14.7601 18.9599C14.6401 18.8399 28.0801 38.0399 30.9601 55.7999Z" fill="#7C8F5C"/>
</svg>
