<svg version="1.1" id="Layer_1" xmlns="http://www.w3.org/2000/svg" xmlns:xlink="http://www.w3.org/1999/xlink" x="0px" y="0px"
	 width="100%" viewBox="0 0 700 700" enable-background="new 0 0 700 700" xml:space="preserve">
<path fill="#000000" opacity="1.000000" stroke="none" 
	d="
M1.000004,635.000000 
	C1.000000,634.250000 1.000000,633.500000 1.380822,632.165771 
	C1.840185,627.603455 1.987176,623.625244 1.987428,619.647095 
	C1.998805,440.472900 2.000616,261.298706 1.955983,82.124542 
	C1.955474,80.082954 1.332438,78.041512 1.000000,76.000000 
	C1.000000,73.629967 1.000000,71.259941 1.363066,68.314713 
	C1.831505,67.426666 1.975463,67.121193 2.036775,66.799942 
	C8.716598,31.800234 29.373306,10.298547 64.158104,2.396574 
	C65.159477,2.169094 66.055077,1.475995 67.000000,1.000000 
	C68.388893,1.000000 69.777779,1.000000 71.824875,1.352569 
	C74.134331,1.802999 75.785561,1.986456 77.436813,1.986577 
	C260.767853,2.000007 444.098877,2.002175 627.429932,1.958903 
	C628.953369,1.958544 630.476624,1.333421 632.000000,1.000000 
	C632.444458,1.000000 632.888855,1.000000 633.822632,1.366770 
	C665.252380,5.315090 690.403870,26.654835 699.154907,56.697613 
	C699.588074,58.184731 700.376831,59.568245 701.000000,61.000000 
	C701.000000,254.690750 701.000000,448.381500 700.649780,642.646240 
	C699.840149,644.631775 699.380127,646.043091 698.921265,647.454834 
	C690.541138,673.236328 673.468628,690.345581 647.708618,698.788452 
	C645.471130,699.521790 643.236145,700.262634 641.000000,701.000000 
	C447.975922,701.000000 254.951843,701.000000 61.336002,700.658020 
	C60.277599,700.152588 59.817513,699.966553 59.343399,699.828918 
	C27.849110,690.688293 8.790689,670.087585 2.236846,637.928345 
	C2.029407,636.910461 1.421320,635.974304 1.000004,635.000000 
M416.572296,531.953552 
	C425.856171,544.358337 435.242065,556.688965 444.349976,569.221619 
	C446.541107,572.236694 448.777283,573.393188 452.550720,573.380310 
	C495.877838,573.232483 539.205688,573.286133 582.533325,573.286133 
	C584.263611,573.286133 585.993896,573.286194 588.625061,573.286194 
	C523.859253,486.690277 459.742035,400.961487 395.463287,315.016785 
	C452.502228,253.388763 509.236176,192.090256 566.794922,129.900574 
	C553.817139,129.900574 542.059570,130.040390 530.308838,129.817596 
	C526.659363,129.748413 524.200684,130.828796 521.705078,133.535995 
	C480.936920,177.761673 440.057434,221.884781 399.198792,266.027069 
	C391.873138,273.941467 384.528320,281.838135 376.950317,290.003815 
	C375.696075,288.439697 374.752808,287.331635 373.882965,286.168640 
	C335.865173,235.338715 297.835541,184.517624 259.894226,133.630646 
	C257.925262,130.989853 255.959442,129.806686 252.540695,129.816605 
	C208.713486,129.943863 164.885788,129.897690 121.058220,129.913803 
	C119.672668,129.914307 118.287186,130.110764 116.167145,130.271591 
	C177.338669,212.066605 238.033600,293.224335 298.792389,374.467468 
	C237.431747,440.757721 176.483551,506.602386 114.758621,573.286194 
	C127.738625,573.286194 139.537506,573.125061 151.327332,573.380920 
	C155.029724,573.461243 157.451248,572.253052 159.903732,569.595337 
	C205.214478,520.492371 250.609299,471.466919 295.992615,422.430908 
	C302.986023,414.874603 310.010406,407.347015 317.439026,399.355865 
	C350.557648,443.662567 383.345276,487.526428 416.572296,531.953552 
z"/>
<path fill="#FBFBFB" opacity="1.000000" stroke="none" 
	d="
M66.531342,1.000000 
	C66.055077,1.475995 65.159477,2.169094 64.158104,2.396574 
	C29.373306,10.298547 8.716598,31.800234 2.036775,66.799942 
	C1.975463,67.121193 1.831505,67.426666 1.363066,67.869751 
	C1.000000,45.740379 1.000000,23.480755 1.000000,1.000000 
	C22.687059,1.000000 44.374870,1.000000 66.531342,1.000000 
z"/>
<path fill="#FBFBFB" opacity="1.000000" stroke="none" 
	d="
M1.000004,635.468628 
	C1.421320,635.974304 2.029407,636.910461 2.236846,637.928345 
	C8.790689,670.087585 27.849110,690.688293 59.343399,699.828918 
	C59.817513,699.966553 60.277599,700.152588 60.872116,700.658020 
	C41.069691,701.000000 21.139380,701.000000 1.000000,701.000000 
	C1.000000,679.312866 1.000000,657.625122 1.000004,635.468628 
z"/>
<path fill="#FBFBFB" opacity="1.000000" stroke="none" 
	d="
M701.000000,60.531342 
	C700.376831,59.568245 699.588074,58.184731 699.154907,56.697613 
	C690.403870,26.654835 665.252380,5.315090 634.155945,1.366770 
	C656.256104,1.000000 678.512268,1.000000 701.000000,1.000000 
	C701.000000,20.686956 701.000000,40.374821 701.000000,60.531342 
z"/>
<path fill="#FBFBFB" opacity="1.000000" stroke="none" 
	d="
M641.468628,701.000000 
	C643.236145,700.262634 645.471130,699.521790 647.708618,698.788452 
	C673.468628,690.345581 690.541138,673.236328 698.921265,647.454834 
	C699.380127,646.043091 699.840149,644.631775 700.649780,643.110107 
	C701.000000,662.261353 701.000000,681.522766 701.000000,701.000000 
	C681.312988,701.000000 661.625122,701.000000 641.468628,701.000000 
z"/>
<path fill="#434343" opacity="1.000000" stroke="none" 
	d="
M631.531372,1.000000 
	C630.476624,1.333421 628.953369,1.958544 627.429932,1.958903 
	C444.098877,2.002175 260.767853,2.000007 77.436813,1.986577 
	C75.785561,1.986456 74.134331,1.802999 72.241547,1.352569 
	C258.354218,1.000000 444.708466,1.000000 631.531372,1.000000 
z"/>
<path fill="#434343" opacity="1.000000" stroke="none" 
	d="
M1.000000,76.468658 
	C1.332438,78.041512 1.955474,80.082954 1.955983,82.124542 
	C2.000616,261.298706 1.998805,440.472900 1.987428,619.647095 
	C1.987176,623.625244 1.840185,627.603455 1.380822,631.790771 
	C1.000000,446.979095 1.000000,261.958221 1.000000,76.468658 
z"/>
<path fill="#FCFCFC" opacity="1.000000" stroke="none" 
	d="
M416.352600,531.671936 
	C383.345276,487.526428 350.557648,443.662567 317.439026,399.355865 
	C310.010406,407.347015 302.986023,414.874603 295.992615,422.430908 
	C250.609299,471.466919 205.214478,520.492371 159.903732,569.595337 
	C157.451248,572.253052 155.029724,573.461243 151.327332,573.380920 
	C139.537506,573.125061 127.738625,573.286194 114.758621,573.286194 
	C176.483551,506.602386 237.431747,440.757721 298.792389,374.467468 
	C238.033600,293.224335 177.338669,212.066605 116.167145,130.271591 
	C118.287186,130.110764 119.672668,129.914307 121.058220,129.913803 
	C164.885788,129.897690 208.713486,129.943863 252.540695,129.816605 
	C255.959442,129.806686 257.925262,130.989853 259.894226,133.630646 
	C297.835541,184.517624 335.865173,235.338715 373.882965,286.168640 
	C374.752808,287.331635 375.696075,288.439697 376.950317,290.003815 
	C384.528320,281.838135 391.873138,273.941467 399.198792,266.027069 
	C440.057434,221.884781 480.936920,177.761673 521.705078,133.535995 
	C524.200684,130.828796 526.659363,129.748413 530.308838,129.817596 
	C542.059570,130.040390 553.817139,129.900574 566.794922,129.900574 
	C509.236176,192.090256 452.502228,253.388763 395.463287,315.016785 
	C459.742035,400.961487 523.859253,486.690277 588.625061,573.286194 
	C585.993896,573.286194 584.263611,573.286133 582.533325,573.286133 
	C539.205688,573.286133 495.877838,573.232483 452.550720,573.380310 
	C448.777283,573.393188 446.541107,572.236694 444.349976,569.221619 
	C435.242065,556.688965 425.856171,544.358337 416.352600,531.671936 
M208.676102,202.826080 
	C239.610458,244.176773 270.549164,285.524200 301.478180,326.878906 
	C354.457092,397.716187 407.414368,468.569702 460.500549,539.326477 
	C461.758911,541.003723 464.421692,542.555542 466.450195,542.582092 
	C485.275940,542.829102 504.106262,542.732727 522.935242,542.716003 
	C524.035645,542.715027 525.135864,542.541260 526.952332,542.387207 
	C525.694580,540.529175 524.856506,539.174438 523.906128,537.903687 
	C430.721436,413.304504 337.520721,288.717285 244.388748,164.078690 
	C242.501312,161.552750 240.615448,160.462494 237.397278,160.490692 
	C219.069595,160.651291 200.739731,160.561646 182.410660,160.582062 
	C181.006927,160.583633 179.603439,160.778152 177.396484,160.942993 
	C187.988571,175.133026 198.112427,188.695786 208.676102,202.826080 
z"/>
<path fill="#020202" opacity="1.000000" stroke="none" 
	d="
M208.456192,202.542297 
	C198.112427,188.695786 187.988571,175.133026 177.396484,160.942993 
	C179.603439,160.778152 181.006927,160.583633 182.410660,160.582062 
	C200.739731,160.561646 219.069595,160.651291 237.397278,160.490692 
	C240.615448,160.462494 242.501312,161.552750 244.388748,164.078690 
	C337.520721,288.717285 430.721436,413.304504 523.906128,537.903687 
	C524.856506,539.174438 525.694580,540.529175 526.952332,542.387207 
	C525.135864,542.541260 524.035645,542.715027 522.935242,542.716003 
	C504.106262,542.732727 485.275940,542.829102 466.450195,542.582092 
	C464.421692,542.555542 461.758911,541.003723 460.500549,539.326477 
	C407.414368,468.569702 354.457092,397.716187 301.478180,326.878906 
	C270.549164,285.524200 239.610458,244.176773 208.456192,202.542297 
z"/>
</svg>