<svg width="24" height="24" viewBox="0 0 24 24" fill="none" xmlns="http://www.w3.org/2000/svg">
<g clip-path="url(#clip0_364_646)">
<path d="M17.6249 0H5.87522C2.64434 0 0.000366211 2.70023 0.000366211 5.99985V18.0001C0.000366211 21.2989 2.64434 24 5.87522 24H17.6249C20.8558 24 23.4998 21.2989 23.4998 18.0001V5.99985C23.4998 2.70023 20.8558 0 17.6249 0ZM21.5414 18.0001C21.5414 20.2051 19.7851 22 17.6249 22H5.87522C3.71593 22 1.95875 20.2051 1.95875 18.0001V5.99985C1.95875 3.79432 3.71593 2.00005 5.87522 2.00005H17.6249C19.7851 2.00005 21.5414 3.79432 21.5414 5.99985V18.0001Z" fill="white"/>
<path d="M18.1154 6.99968C18.9266 6.99968 19.5842 6.32813 19.5842 5.49972C19.5842 4.67131 18.9266 3.99976 18.1154 3.99976C17.3043 3.99976 16.6467 4.67131 16.6467 5.49972C16.6467 6.32813 17.3043 6.99968 18.1154 6.99968Z" fill="white"/>
<path d="M11.75 5.99988C8.50469 5.99988 5.87512 8.68569 5.87512 11.9997C5.87512 15.3125 8.50469 18.0002 11.75 18.0002C14.9943 18.0002 17.6248 15.3125 17.6248 11.9997C17.6248 8.68569 14.9943 5.99988 11.75 5.99988ZM11.75 16.0001C9.58712 16.0001 7.8335 14.2092 7.8335 11.9997C7.8335 9.79027 9.58712 7.99993 11.75 7.99993C13.9128 7.99993 15.6665 9.79027 15.6665 11.9997C15.6665 14.2092 13.9128 16.0001 11.75 16.0001Z" fill="white"/>
</g>
<defs>
<clipPath id="clip0_364_646">
<rect width="23.5" height="24" fill="white"/>
</clipPath>
</defs>
</svg>
